<mxfile host="app.diagrams.net" agent="Mozilla/5.0 (Macintosh; Intel Mac OS X 10_15_7) AppleWebKit/537.36 (KHTML, like Gecko) Chrome/129.0.0.0 Safari/537.36" version="24.7.16">
  <diagram name="Page-1" id="5f0bae14-7c28-e335-631c-24af17079c00">
    <mxGraphModel dx="1980" dy="514" grid="1" gridSize="10" guides="1" tooltips="1" connect="1" arrows="1" fold="1" page="1" pageScale="1" pageWidth="1100" pageHeight="850" background="none" math="0" shadow="0">
      <root>
        <mxCell id="0" />
        <mxCell id="1" parent="0" />
        <mxCell id="ESEfGGq9zmV94k3aTrEM-2" value="Iniciar&amp;nbsp;&lt;span style=&quot;background-color: initial;&quot;&gt;sesiÃ³n&lt;/span&gt;" style="verticalLabelPosition=bottom;html=1;verticalAlign=top;align=center;strokeColor=none;fillColor=#00BEF2;shape=mxgraph.azure.azure_website;pointerEvents=1;" vertex="1" parent="1">
          <mxGeometry x="240" y="80" width="50" height="50" as="geometry" />
        </mxCell>
        <mxCell id="ESEfGGq9zmV94k3aTrEM-3" value="Gestionar usuarios" style="verticalLabelPosition=bottom;html=1;verticalAlign=top;align=center;strokeColor=none;fillColor=#00BEF2;shape=mxgraph.azure.azure_website;pointerEvents=1;" vertex="1" parent="1">
          <mxGeometry x="240" y="340" width="50" height="50" as="geometry" />
        </mxCell>
        <mxCell id="ESEfGGq9zmV94k3aTrEM-4" value="Gestionar&lt;span style=&quot;background-color: initial;&quot;&gt;&amp;nbsp;proyectos&lt;/span&gt;" style="verticalLabelPosition=bottom;html=1;verticalAlign=top;align=center;strokeColor=none;fillColor=#00BEF2;shape=mxgraph.azure.azure_website;pointerEvents=1;" vertex="1" parent="1">
          <mxGeometry x="240" y="220" width="50" height="50" as="geometry" />
        </mxCell>
        <mxCell id="ESEfGGq9zmV94k3aTrEM-5" value="asignar colaboradores" style="verticalLabelPosition=bottom;html=1;verticalAlign=top;align=center;strokeColor=none;fillColor=#00BEF2;shape=mxgraph.azure.azure_website;pointerEvents=1;" vertex="1" parent="1">
          <mxGeometry x="470" y="80" width="50" height="50" as="geometry" />
        </mxCell>
        <mxCell id="ESEfGGq9zmV94k3aTrEM-7" value="Gestionar roles" style="verticalLabelPosition=bottom;html=1;verticalAlign=top;align=center;strokeColor=none;fillColor=#00BEF2;shape=mxgraph.azure.azure_website;pointerEvents=1;" vertex="1" parent="1">
          <mxGeometry x="450" y="250" width="50" height="50" as="geometry" />
        </mxCell>
        <mxCell id="ESEfGGq9zmV94k3aTrEM-8" value="Gestionar tareas" style="verticalLabelPosition=bottom;html=1;verticalAlign=top;align=center;strokeColor=none;fillColor=#00BEF2;shape=mxgraph.azure.azure_website;pointerEvents=1;" vertex="1" parent="1">
          <mxGeometry x="450" y="390" width="50" height="50" as="geometry" />
        </mxCell>
        <mxCell id="ESEfGGq9zmV94k3aTrEM-9" value="Notificaciones" style="verticalLabelPosition=bottom;html=1;verticalAlign=top;align=center;strokeColor=none;fillColor=#00BEF2;shape=mxgraph.azure.azure_website;pointerEvents=1;" vertex="1" parent="1">
          <mxGeometry x="680" y="90" width="50" height="50" as="geometry" />
        </mxCell>
        <mxCell id="ESEfGGq9zmV94k3aTrEM-10" value="Seguimiento avance de proyecto" style="verticalLabelPosition=bottom;html=1;verticalAlign=top;align=center;strokeColor=none;fillColor=#00BEF2;shape=mxgraph.azure.azure_website;pointerEvents=1;" vertex="1" parent="1">
          <mxGeometry x="650" y="250" width="50" height="50" as="geometry" />
        </mxCell>
        <mxCell id="ESEfGGq9zmV94k3aTrEM-11" value="Suscribir avance de proyecto" style="verticalLabelPosition=bottom;html=1;verticalAlign=top;align=center;strokeColor=none;fillColor=#00BEF2;shape=mxgraph.azure.azure_website;pointerEvents=1;" vertex="1" parent="1">
          <mxGeometry x="50" y="80" width="50" height="50" as="geometry" />
        </mxCell>
        <mxCell id="ESEfGGq9zmV94k3aTrEM-12" value="Dashboard de proyectos" style="verticalLabelPosition=bottom;html=1;verticalAlign=top;align=center;strokeColor=none;fillColor=#00BEF2;shape=mxgraph.azure.azure_website;pointerEvents=1;" vertex="1" parent="1">
          <mxGeometry x="40" y="220" width="50" height="50" as="geometry" />
        </mxCell>
        <mxCell id="ESEfGGq9zmV94k3aTrEM-13" value="Administrar notificaciones" style="verticalLabelPosition=bottom;html=1;verticalAlign=top;align=center;strokeColor=none;fillColor=#00BEF2;shape=mxgraph.azure.azure_website;pointerEvents=1;" vertex="1" parent="1">
          <mxGeometry x="30" y="360" width="50" height="50" as="geometry" />
        </mxCell>
        <mxCell id="ESEfGGq9zmV94k3aTrEM-14" value="Exportar reportes" style="verticalLabelPosition=bottom;html=1;verticalAlign=top;align=center;strokeColor=none;fillColor=#00BEF2;shape=mxgraph.azure.azure_website;pointerEvents=1;" vertex="1" parent="1">
          <mxGeometry x="650" y="375" width="50" height="50" as="geometry" />
        </mxCell>
        <mxCell id="ESEfGGq9zmV94k3aTrEM-15" value="Asignar tiempo tareas" style="verticalLabelPosition=bottom;html=1;verticalAlign=top;align=center;strokeColor=none;fillColor=#00BEF2;shape=mxgraph.azure.azure_website;pointerEvents=1;" vertex="1" parent="1">
          <mxGeometry x="340" y="440" width="50" height="50" as="geometry" />
        </mxCell>
      </root>
    </mxGraphModel>
  </diagram>
</mxfile>
